<?xml version="1.0" standalone="no"?>
<!DOCTYPE svg PUBLIC "-//W3C//DTD SVG 20010904//EN"
 "http://www.w3.org/TR/2001/REC-SVG-20010904/DTD/svg10.dtd">
<svg version="1.0" xmlns="http://www.w3.org/2000/svg"
 width="260.000000pt" height="260.000000pt" viewBox="0 0 260.000000 260.000000"
 preserveAspectRatio="xMidYMid meet">
<metadata>
Created by potrace 1.11, written by Peter Selinger 2001-2013
</metadata>
<g transform="translate(0.000000,260.000000) scale(0.100000,-0.100000)"
fill="#000000" stroke="none">
<path d="M1831 2275 c-63 -28 -128 -84 -164 -143 -34 -55 -125 -274 -129 -310
-1 -10 -4 67 -7 170 -4 135 -10 191 -19 200 -18 18 -39 -11 -58 -82 -8 -30
-19 -70 -25 -89 -10 -28 -12 -87 -8 -173 0 -7 -20 -62 -45 -122 -25 -59 -48
-121 -51 -137 -4 -16 -18 -37 -32 -46 -15 -10 -23 -23 -20 -34 6 -24 -55 -46
-111 -41 -51 5 -62 24 -62 108 0 59 26 193 41 209 5 5 9 16 9 25 0 39 107 259
131 268 5 2 9 8 9 14 0 18 26 36 71 49 81 23 98 53 53 94 -38 35 -68 31 -154
-17 -94 -54 -136 -114 -210 -300 -59 -151 -80 -245 -80 -365 0 -98 10 -122 73
-169 105 -79 245 -58 339 51 37 42 99 176 117 252 l19 78 -6 -101 c-7 -138 1
-183 41 -224 56 -58 84 -70 166 -70 134 0 212 61 274 218 73 184 87 278 73
502 -7 115 -40 194 -61 143 -17 -44 -55 -277 -46 -281 10 -4 4 -91 -7 -105 -6
-7 -20 -39 -32 -72 -12 -33 -27 -76 -35 -95 -7 -19 -16 -47 -19 -62 -4 -15
-16 -36 -27 -47 -12 -11 -18 -24 -15 -30 10 -16 -47 -41 -104 -45 -46 -4 -51
-3 -64 22 -19 38 -14 192 8 267 40 135 86 239 132 302 13 17 24 36 24 41 0 12
45 42 63 42 23 0 67 40 67 60 0 21 -45 60 -69 60 -9 -1 -31 -7 -50 -15z"/>
<path d="M952 2177 c-23 -7 -52 -24 -65 -38 -27 -32 -166 -145 -227 -185 -54
-35 -65 -73 -28 -98 33 -24 52 -20 125 24 37 22 68 38 71 36 2 -3 -16 -56 -41
-118 -24 -62 -50 -131 -57 -153 -7 -22 -25 -69 -40 -105 -57 -129 -90 -222
-101 -283 -29 -164 -29 -170 -4 -254 15 -49 45 -16 59 64 3 18 15 53 26 78 11
25 25 67 30 93 5 26 33 93 63 149 29 55 59 121 67 147 7 25 17 46 22 46 5 0 8
12 7 28 -3 27 36 124 52 130 5 2 9 13 9 25 0 19 24 80 85 212 13 28 29 74 36
103 11 46 11 57 -2 80 -17 32 -30 34 -87 19z"/>
<path d="M1453 1236 c-3 -4 -23 -6 -44 -3 -22 3 -42 1 -45 -4 -3 -5 -25 -9
-48 -9 -24 0 -81 -9 -127 -20 -46 -11 -106 -25 -134 -31 -27 -6 -69 -20 -92
-30 -23 -11 -49 -19 -57 -19 -26 0 -31 -48 -8 -78 25 -34 49 -33 222 9 150 37
314 60 470 66 63 3 119 9 125 14 5 5 29 9 55 9 82 0 94 35 23 68 -21 9 -39 20
-41 25 -5 9 -51 8 -76 -2 -12 -4 -31 -2 -47 6 -30 15 -167 14 -176 -1z"/>
<path d="M1486 968 c-10 -5 -29 -7 -43 -3 -15 3 -29 2 -33 -5 -4 -6 -36 -13
-71 -16 -193 -15 -333 -38 -394 -64 -11 -5 -60 -19 -110 -31 -87 -21 -105 -27
-187 -63 -45 -19 -51 -53 -17 -87 17 -17 28 -20 53 -14 17 4 51 11 76 15 25 4
115 26 200 48 85 23 175 43 200 46 129 14 227 27 264 35 22 5 103 12 179 16
75 4 140 11 143 16 3 5 35 9 72 9 79 0 112 8 112 25 0 17 -38 41 -80 50 -19 4
-39 11 -45 15 -17 13 -68 14 -99 1 -20 -8 -38 -9 -55 -2 -39 14 -145 20 -165
9z"/>
</g>
</svg>
